<svg width="32" height="32" viewBox="0 0 32 32" fill="none" xmlns="http://www.w3.org/2000/svg">
<path d="M15.3334 2.66666C8.34669 2.66666 2.66669 8.34666 2.66669 15.3333C2.66669 22.32 8.34669 28 15.3334 28C22.32 28 28 22.32 28 15.3333C28 8.34666 22.32 2.66666 15.3334 2.66666ZM15.3334 18.3333H11.3334C10.7867 18.3333 10.3334 17.88 10.3334 17.3333C10.3334 16.7867 10.7867 16.3333 11.3334 16.3333H15.3334C15.88 16.3333 16.3334 16.7867 16.3334 17.3333C16.3334 17.88 15.88 18.3333 15.3334 18.3333ZM19.3334 14.3333H11.3334C10.7867 14.3333 10.3334 13.88 10.3334 13.3333C10.3334 12.7867 10.7867 12.3333 11.3334 12.3333H19.3334C19.88 12.3333 20.3334 12.7867 20.3334 13.3333C20.3334 13.88 19.88 14.3333 19.3334 14.3333ZM28.4 29.332C28.16 29.332 27.92 29.2387 27.7467 29.0653L25.2667 26.5853C25.0936 26.4093 24.9966 26.1722 24.9966 25.9253C24.9966 25.6784 25.0936 25.4414 25.2667 25.2653C25.6267 24.9053 26.2134 24.9053 26.5867 25.2653L29.0667 27.7453C29.4267 28.1053 29.4267 28.692 29.0667 29.0653C28.88 29.2387 28.64 29.332 28.4 29.332Z" fill="#FDFDFD"/>
</svg>
